<mxfile host="app.diagrams.net" agent="Mozilla/5.0 (Windows NT 10.0; Win64; x64) AppleWebKit/537.36 (KHTML, like Gecko) Chrome/126.0.0.0 YaBrowser/24.7.0.0 Safari/537.36" version="24.7.17">
  <diagram name="Страница — 1" id="G68s8AtU_CvWwxnL1vp6">
    <mxGraphModel dx="2440" dy="1354" grid="1" gridSize="10" guides="1" tooltips="1" connect="1" arrows="1" fold="1" page="1" pageScale="1" pageWidth="827" pageHeight="1169" math="0" shadow="0">
      <root>
        <mxCell id="0" />
        <mxCell id="1" parent="0" />
        <mxCell id="_BXedDKPyXcXk90w_YWU-10" style="edgeStyle=orthogonalEdgeStyle;rounded=0;orthogonalLoop=1;jettySize=auto;html=1;entryX=0;entryY=0.5;entryDx=0;entryDy=0;" edge="1" parent="1" source="_BXedDKPyXcXk90w_YWU-1" target="_BXedDKPyXcXk90w_YWU-34">
          <mxGeometry relative="1" as="geometry" />
        </mxCell>
        <mxCell id="_BXedDKPyXcXk90w_YWU-30" style="edgeStyle=orthogonalEdgeStyle;rounded=0;orthogonalLoop=1;jettySize=auto;html=1;entryX=0;entryY=0.5;entryDx=0;entryDy=0;exitX=0.5;exitY=0;exitDx=0;exitDy=0;" edge="1" parent="1" source="_BXedDKPyXcXk90w_YWU-9" target="_BXedDKPyXcXk90w_YWU-23">
          <mxGeometry relative="1" as="geometry">
            <Array as="points">
              <mxPoint x="430" y="380" />
            </Array>
          </mxGeometry>
        </mxCell>
        <mxCell id="_BXedDKPyXcXk90w_YWU-1" value="Пользователь" style="shape=umlActor;verticalLabelPosition=bottom;verticalAlign=top;html=1;outlineConnect=0;" vertex="1" parent="1">
          <mxGeometry x="90" y="525" width="60" height="120" as="geometry" />
        </mxCell>
        <mxCell id="_BXedDKPyXcXk90w_YWU-22" style="edgeStyle=orthogonalEdgeStyle;rounded=0;orthogonalLoop=1;jettySize=auto;html=1;entryX=1;entryY=0.5;entryDx=0;entryDy=0;exitX=0.5;exitY=0;exitDx=0;exitDy=0;" edge="1" parent="1" source="_BXedDKPyXcXk90w_YWU-2" target="_BXedDKPyXcXk90w_YWU-20">
          <mxGeometry relative="1" as="geometry">
            <mxPoint x="1000" y="300" as="sourcePoint" />
            <Array as="points">
              <mxPoint x="1005" y="240" />
            </Array>
          </mxGeometry>
        </mxCell>
        <mxCell id="_BXedDKPyXcXk90w_YWU-29" style="edgeStyle=orthogonalEdgeStyle;rounded=0;orthogonalLoop=1;jettySize=auto;html=1;entryX=1;entryY=0.5;entryDx=0;entryDy=0;startArrow=classic;startFill=1;" edge="1" parent="1" source="_BXedDKPyXcXk90w_YWU-2" target="_BXedDKPyXcXk90w_YWU-23">
          <mxGeometry relative="1" as="geometry" />
        </mxCell>
        <mxCell id="_BXedDKPyXcXk90w_YWU-38" style="edgeStyle=orthogonalEdgeStyle;rounded=0;orthogonalLoop=1;jettySize=auto;html=1;exitX=0.75;exitY=1;exitDx=0;exitDy=0;entryX=1;entryY=0.75;entryDx=0;entryDy=0;startArrow=classic;startFill=1;" edge="1" parent="1" source="_BXedDKPyXcXk90w_YWU-2" target="_BXedDKPyXcXk90w_YWU-7">
          <mxGeometry relative="1" as="geometry" />
        </mxCell>
        <mxCell id="_BXedDKPyXcXk90w_YWU-2" value="Сервис обмена знаниями и опытом" style="rounded=0;whiteSpace=wrap;html=1;" vertex="1" parent="1">
          <mxGeometry x="920" y="315" width="170" height="130" as="geometry" />
        </mxCell>
        <mxCell id="_BXedDKPyXcXk90w_YWU-5" value="" style="rounded=0;whiteSpace=wrap;html=1;fillColor=none;" vertex="1" parent="1">
          <mxGeometry x="200" y="110" width="660" height="640" as="geometry" />
        </mxCell>
        <mxCell id="_BXedDKPyXcXk90w_YWU-6" value="Внешние сервисы" style="text;html=1;align=center;verticalAlign=middle;whiteSpace=wrap;rounded=0;fontSize=21;" vertex="1" parent="1">
          <mxGeometry x="420" y="700" width="195" height="40" as="geometry" />
        </mxCell>
        <mxCell id="_BXedDKPyXcXk90w_YWU-17" style="edgeStyle=orthogonalEdgeStyle;rounded=0;orthogonalLoop=1;jettySize=auto;html=1;entryX=0.5;entryY=1;entryDx=0;entryDy=0;" edge="1" parent="1" source="_BXedDKPyXcXk90w_YWU-7" target="_BXedDKPyXcXk90w_YWU-28">
          <mxGeometry relative="1" as="geometry">
            <mxPoint x="790" y="615" as="targetPoint" />
            <Array as="points">
              <mxPoint x="710" y="640" />
            </Array>
          </mxGeometry>
        </mxCell>
        <mxCell id="_BXedDKPyXcXk90w_YWU-7" value="Почтовый сервис" style="rounded=0;whiteSpace=wrap;html=1;" vertex="1" parent="1">
          <mxGeometry x="530" y="610" width="120" height="60" as="geometry" />
        </mxCell>
        <mxCell id="_BXedDKPyXcXk90w_YWU-16" style="edgeStyle=orthogonalEdgeStyle;rounded=0;orthogonalLoop=1;jettySize=auto;html=1;entryX=0;entryY=0;entryDx=0;entryDy=0;" edge="1" parent="1" source="_BXedDKPyXcXk90w_YWU-8" target="_BXedDKPyXcXk90w_YWU-28">
          <mxGeometry relative="1" as="geometry">
            <mxPoint x="730" y="585" as="targetPoint" />
            <Array as="points">
              <mxPoint x="682" y="530" />
              <mxPoint x="682" y="545" />
              <mxPoint x="682" y="545" />
            </Array>
          </mxGeometry>
        </mxCell>
        <mxCell id="_BXedDKPyXcXk90w_YWU-8" value="Oauth-сервис" style="rounded=0;whiteSpace=wrap;html=1;" vertex="1" parent="1">
          <mxGeometry x="530" y="500" width="120" height="60" as="geometry" />
        </mxCell>
        <mxCell id="_BXedDKPyXcXk90w_YWU-11" style="edgeStyle=orthogonalEdgeStyle;rounded=0;orthogonalLoop=1;jettySize=auto;html=1;entryX=0;entryY=0.5;entryDx=0;entryDy=0;" edge="1" parent="1" source="_BXedDKPyXcXk90w_YWU-9" target="_BXedDKPyXcXk90w_YWU-8">
          <mxGeometry relative="1" as="geometry" />
        </mxCell>
        <mxCell id="_BXedDKPyXcXk90w_YWU-12" style="edgeStyle=orthogonalEdgeStyle;rounded=0;orthogonalLoop=1;jettySize=auto;html=1;entryX=0;entryY=0.5;entryDx=0;entryDy=0;" edge="1" parent="1" source="_BXedDKPyXcXk90w_YWU-9" target="_BXedDKPyXcXk90w_YWU-7">
          <mxGeometry relative="1" as="geometry" />
        </mxCell>
        <mxCell id="_BXedDKPyXcXk90w_YWU-9" value="XOR" style="ellipse;whiteSpace=wrap;html=1;aspect=fixed;" vertex="1" parent="1">
          <mxGeometry x="390" y="545" width="80" height="80" as="geometry" />
        </mxCell>
        <mxCell id="_BXedDKPyXcXk90w_YWU-19" style="edgeStyle=orthogonalEdgeStyle;rounded=0;orthogonalLoop=1;jettySize=auto;html=1;entryX=0.5;entryY=1;entryDx=0;entryDy=0;exitX=1;exitY=0.5;exitDx=0;exitDy=0;" edge="1" parent="1" source="_BXedDKPyXcXk90w_YWU-28" target="_BXedDKPyXcXk90w_YWU-2">
          <mxGeometry relative="1" as="geometry">
            <mxPoint x="850" y="585" as="sourcePoint" />
          </mxGeometry>
        </mxCell>
        <mxCell id="_BXedDKPyXcXk90w_YWU-20" value="Сервис мониторинга" style="rounded=0;whiteSpace=wrap;html=1;" vertex="1" parent="1">
          <mxGeometry x="510" y="210" width="120" height="60" as="geometry" />
        </mxCell>
        <mxCell id="_BXedDKPyXcXk90w_YWU-31" style="edgeStyle=orthogonalEdgeStyle;rounded=0;orthogonalLoop=1;jettySize=auto;html=1;entryX=1;entryY=0;entryDx=0;entryDy=0;" edge="1" parent="1" source="_BXedDKPyXcXk90w_YWU-23" target="_BXedDKPyXcXk90w_YWU-28">
          <mxGeometry relative="1" as="geometry">
            <Array as="points">
              <mxPoint x="570" y="450" />
              <mxPoint x="738" y="450" />
            </Array>
          </mxGeometry>
        </mxCell>
        <mxCell id="_BXedDKPyXcXk90w_YWU-23" value="База данных" style="rounded=0;whiteSpace=wrap;html=1;" vertex="1" parent="1">
          <mxGeometry x="510" y="350" width="120" height="60" as="geometry" />
        </mxCell>
        <mxCell id="_BXedDKPyXcXk90w_YWU-28" value="XOR" style="ellipse;whiteSpace=wrap;html=1;aspect=fixed;" vertex="1" parent="1">
          <mxGeometry x="670" y="545" width="80" height="80" as="geometry" />
        </mxCell>
        <mxCell id="_BXedDKPyXcXk90w_YWU-37" style="edgeStyle=orthogonalEdgeStyle;rounded=0;orthogonalLoop=1;jettySize=auto;html=1;entryX=0;entryY=0.5;entryDx=0;entryDy=0;" edge="1" parent="1" source="_BXedDKPyXcXk90w_YWU-34" target="_BXedDKPyXcXk90w_YWU-9">
          <mxGeometry relative="1" as="geometry" />
        </mxCell>
        <mxCell id="_BXedDKPyXcXk90w_YWU-34" value="Поставщик авторизации" style="rounded=0;whiteSpace=wrap;html=1;" vertex="1" parent="1">
          <mxGeometry x="240" y="555" width="120" height="60" as="geometry" />
        </mxCell>
      </root>
    </mxGraphModel>
  </diagram>
</mxfile>
